<svg xmlns="http://www.w3.org/2000/svg"  viewBox="0 0 64 64" width="48px" height="48px"><path d="M16 44c-.512 0-1.023-.195-1.414-.586l-10-10c-.781-.781-.781-2.047 0-2.828l10-10c.781-.781 2.047-.781 2.828 0 .781.781.781 2.047 0 2.828L8.828 32l8.586 8.586c.781.781.781 2.047 0 2.828C17.023 43.805 16.512 44 16 44zM26 50c-.233 0-.471-.041-.702-.128-1.034-.388-1.559-1.541-1.171-2.575l12-32c.389-1.035 1.541-1.558 2.575-1.17s1.559 1.541 1.171 2.575l-12 32C27.571 49.505 26.81 50 26 50zM48 44c-.512 0-1.023-.195-1.414-.586-.781-.781-.781-2.047 0-2.828L55.172 32l-8.586-8.586c-.781-.781-.781-2.047 0-2.828.781-.781 2.047-.781 2.828 0l10 10c.781.781.781 2.047 0 2.828l-10 10C49.023 43.805 48.512 44 48 44z"/></svg>