<svg xmlns="http://www.w3.org/2000/svg"  viewBox="0 0 64 64" width="48px" height="48px"><path d="M 32 3.0234375 C 31.478 3.0234375 30.955078 3.2118437 30.580078 3.5898438 L 23.580078 10.640625 C 22.802078 11.424625 22.807797 12.69075 23.591797 13.46875 C 24.374797 14.24675 25.642922 14.241984 26.419922 13.458984 L 30 9.8535156 L 30 32.050781 C 30 33.154781 30.896 34.050781 32 34.050781 C 33.104 34.050781 34 33.154781 34 32.050781 L 34 9.8535156 L 37.580078 13.458984 C 37.971078 13.852984 38.485 14.050781 39 14.050781 C 39.51 14.050781 40.019203 13.85575 40.408203 13.46875 C 41.192203 12.68975 41.197922 11.424625 40.419922 10.640625 L 33.419922 3.5898438 C 33.044922 3.2118437 32.522 3.0234375 32 3.0234375 z M 15 17 C 11.691 17 9 19.691 9 23 L 9 45 C 9 48.309 11.691 51 15 51 L 49 51 C 52.309 51 55 48.309 55 45 L 55 23 C 55 19.691 52.309 17 49 17 L 37 17 L 37 21 L 49 21 C 50.103 21 51 21.897 51 23 L 51 45 C 51 46.103 50.103 47 49 47 L 15 47 C 13.897 47 13 46.103 13 45 L 13 23 C 13 21.897 13.897 21 15 21 L 27 21 L 27 17 L 15 17 z"/></svg>