<?xml version="1.0" encoding="UTF-8"?>
<svg width="225px" height="23px" viewBox="0 0 225 23" version="1.1" xmlns="http://www.w3.org/2000/svg" xmlns:xlink="http://www.w3.org/1999/xlink">
    <!-- Generator: Sketch 51.3 (57544) - http://www.bohemiancoding.com/sketch -->
    <title>XCLOUD ACTION</title>
    <desc>Created with Sketch.</desc>
    <defs></defs>
    <g id="app-icon_32x32" stroke="none" stroke-width="1" fill="none" fill-rule="evenodd">
        <path d="M7.44,10.99 L0.39,0.58 L3.81,0.58 L9.15,8.95 L14.73,0.58 L17.91,0.58 L10.83,10.99 L18.36,22 L14.88,22 L9.12,13.15 L3.18,22 L0,22 L7.44,10.99 Z M35.73,7.03 C35.4099984,5.5099924 34.7050054,4.3700038 33.615,3.61 C32.5249945,2.8499962 31.2300075,2.47 29.73,2.47 C28.4499936,2.47 27.3550045,2.7099976 26.445,3.19 C25.5349954,3.6700024 24.7850029,4.31499595 24.195,5.125 C23.604997,5.93500405 23.1700014,6.8599948 22.89,7.9 C22.6099986,8.9400052 22.47,10.0199944 22.47,11.14 C22.47,12.3600061 22.6099986,13.5149946 22.89,14.605 C23.1700014,15.6950054 23.604997,16.644996 24.195,17.455 C24.7850029,18.265004 25.5399954,18.9099976 26.46,19.39 C27.3800046,19.8700024 28.4799936,20.11 29.76,20.11 C30.7000047,20.11 31.5349964,19.9550015 32.265,19.645 C32.9950037,19.3349985 33.6249973,18.9050028 34.155,18.355 C34.6850026,17.8049972 35.0999985,17.1500038 35.4,16.39 C35.7000015,15.6299962 35.8799997,14.8100044 35.94,13.93 L38.79,13.93 C38.5099986,16.6300135 37.5800079,18.7299925 36,20.23 C34.4199921,21.7300075 32.2600137,22.48 29.52,22.48 C27.8599917,22.48 26.4100062,22.1950029 25.17,21.625 C23.9299938,21.0549971 22.9000041,20.270005 22.08,19.27 C21.2599959,18.269995 20.645002,17.0900068 20.235,15.73 C19.8249979,14.3699932 19.62,12.9100078 19.62,11.35 C19.62,9.7899922 19.8399978,8.32500685 20.28,6.955 C20.7200022,5.58499315 21.3649958,4.3900051 22.215,3.37 C23.0650043,2.3499949 24.1249936,1.54500295 25.395,0.955 C26.6650064,0.36499705 28.1199918,0.07 29.76,0.07 C30.8800056,0.07 31.939995,0.2199985 32.94,0.52 C33.940005,0.8200015 34.8299961,1.2599971 35.61,1.84 C36.3900039,2.4200029 37.0399974,3.14499565 37.56,4.015 C38.0800026,4.88500435 38.4199992,5.8899943 38.58,7.03 L35.73,7.03 Z M42.33,0.58 L45.18,0.58 L45.18,19.6 L56.52,19.6 L56.52,22 L42.33,22 L42.33,0.58 Z M60.66,11.29 C60.66,12.3700054 60.7999986,13.4349947 61.08,14.485 C61.3600014,15.5350052 61.799997,16.4799958 62.4,17.32 C63.000003,18.1600042 63.7699953,18.8349975 64.71,19.345 C65.6500047,19.8550025 66.7699935,20.11 68.07,20.11 C69.3700065,20.11 70.4899953,19.8550025 71.43,19.345 C72.3700047,18.8349975 73.139997,18.1600042 73.74,17.32 C74.340003,16.4799958 74.7799986,15.5350052 75.06,14.485 C75.3400014,13.4349947 75.48,12.3700054 75.48,11.29 C75.48,10.2099946 75.3400014,9.14500525 75.06,8.095 C74.7799986,7.04499475 74.340003,6.1000042 73.74,5.26 C73.139997,4.4199958 72.3700047,3.74500255 71.43,3.235 C70.4899953,2.72499745 69.3700065,2.47 68.07,2.47 C66.7699935,2.47 65.6500047,2.72499745 64.71,3.235 C63.7699953,3.74500255 63.000003,4.4199958 62.4,5.26 C61.799997,6.1000042 61.3600014,7.04499475 61.08,8.095 C60.7999986,9.14500525 60.66,10.2099946 60.66,11.29 Z M57.81,11.29 C57.81,9.8299927 58.0249978,8.42500675 58.455,7.075 C58.8850022,5.72499325 59.5299957,4.5300052 60.39,3.49 C61.2500043,2.4499948 62.3199936,1.6200031 63.6,1 C64.8800064,0.3799969 66.3699915,0.07 68.07,0.07 C69.7700085,0.07 71.2599936,0.3799969 72.54,1 C73.8200064,1.6200031 74.8899957,2.4499948 75.75,3.49 C76.6100043,4.5300052 77.2549979,5.72499325 77.685,7.075 C78.1150021,8.42500675 78.33,9.8299927 78.33,11.29 C78.33,12.7500073 78.1150021,14.1549933 77.685,15.505 C77.2549979,16.8550068 76.6100043,18.0499948 75.75,19.09 C74.8899957,20.1300052 73.8200064,20.9549969 72.54,21.565 C71.2599936,22.1750031 69.7700085,22.48 68.07,22.48 C66.3699915,22.48 64.8800064,22.1750031 63.6,21.565 C62.3199936,20.9549969 61.2500043,20.1300052 60.39,19.09 C59.5299957,18.0499948 58.8850022,16.8550068 58.455,15.505 C58.0249978,14.1549933 57.81,12.7500073 57.81,11.29 Z M98.91,14.26 C98.91,17.0000137 98.1800073,19.0549931 96.72,20.425 C95.2599927,21.7950068 93.1800135,22.48 90.48,22.48 C87.7199862,22.48 85.5650078,21.8250066 84.015,20.515 C82.4649923,19.2049935 81.69,17.1200143 81.69,14.26 L81.69,0.58 L84.54,0.58 L84.54,14.26 C84.54,16.1800096 85.0499949,17.634995 86.07,18.625 C87.0900051,19.615005 88.5599904,20.11 90.48,20.11 C92.3000091,20.11 93.6849952,19.615005 94.635,18.625 C95.5850047,17.634995 96.06,16.1800096 96.06,14.26 L96.06,0.58 L98.91,0.58 L98.91,14.26 Z M106.32,19.6 L111.06,19.6 C111.380002,19.6 111.779998,19.5750002 112.26,19.525 C112.740002,19.4749997 113.249997,19.3550009 113.79,19.165 C114.330003,18.974999 114.864997,18.7000018 115.395,18.34 C115.925003,17.9799982 116.399998,17.4900031 116.82,16.87 C117.240002,16.2499969 117.584999,15.4750046 117.855,14.545 C118.125001,13.6149953 118.26,12.4900066 118.26,11.17 C118.26,9.8899936 118.135001,8.74500505 117.885,7.735 C117.634999,6.72499495 117.225003,5.86500355 116.655,5.155 C116.084997,4.44499645 115.350005,3.90500185 114.45,3.535 C113.549995,3.16499815 112.440007,2.98 111.12,2.98 L106.32,2.98 L106.32,19.6 Z M103.47,0.58 L110.82,0.58 C114.120017,0.58 116.659991,1.4199916 118.44,3.1 C120.220009,4.7800084 121.11,7.3399828 121.11,10.78 C121.11,12.580009 120.910002,14.1749931 120.51,15.565 C120.109998,16.955007 119.490004,18.1249953 118.65,19.075 C117.809996,20.0250047 116.740007,20.7499975 115.44,21.25 C114.139993,21.7500025 112.600009,22 110.82,22 L103.47,22 L103.47,0.58 Z M133.836,0.58 L135.276,0.58 L143.736,22 L142.326,22 L139.626,15.13 L129.366,15.13 L126.636,22 L125.226,22 L133.836,0.58 Z M139.206,13.99 L134.616,1.87 L134.556,1.87 L129.786,13.99 L139.206,13.99 Z M143.916,11.29 C143.916,9.7299922 144.145998,8.26500685 144.606,6.895 C145.066002,5.52499315 145.730996,4.33500505 146.601,3.325 C147.471004,2.31499495 148.540994,1.5200029 149.811,0.94 C151.081006,0.3599971 152.515992,0.07 154.116,0.07 C155.376006,0.07 156.465995,0.23499835 157.386,0.565 C158.306005,0.89500165 159.080997,1.30499755 159.711,1.795 C160.341003,2.28500245 160.855998,2.8199971 161.256,3.4 C161.656002,3.9800029 161.960999,4.52499745 162.171,5.035 C162.381001,5.54500255 162.526,5.98499815 162.606,6.355 C162.686,6.72500185 162.726,6.9299998 162.726,6.97 L161.406,6.97 C161.265999,6.0699955 160.976002,5.26500355 160.536,4.555 C160.095998,3.84499645 159.546003,3.2400025 158.886,2.74 C158.225997,2.2399975 157.491004,1.8600013 156.681,1.6 C155.870996,1.3399987 155.016005,1.21 154.116,1.21 C152.715993,1.21 151.466006,1.4799973 150.366,2.02 C149.265994,2.5600027 148.336004,3.28499545 147.576,4.195 C146.815996,5.10500455 146.236002,6.1699939 145.836,7.39 C145.435998,8.6100061 145.236,9.9099931 145.236,11.29 C145.236,12.6700069 145.435998,13.9699939 145.836,15.19 C146.236002,16.4100061 146.815996,17.4749954 147.576,18.385 C148.336004,19.2950046 149.265994,20.0199973 150.366,20.56 C151.466006,21.1000027 152.715993,21.37 154.116,21.37 C155.156005,21.37 156.130995,21.1550022 157.041,20.725 C157.951005,20.2949979 158.745997,19.7250036 159.426,19.015 C160.106003,18.3049965 160.650998,17.4850047 161.061,16.555 C161.471002,15.6249954 161.706,14.660005 161.766,13.66 L163.086,13.66 C162.965999,14.9400064 162.651003,16.1199946 162.141,17.2 C161.630997,18.2800054 160.981004,19.2149961 160.191,20.005 C159.400996,20.795004 158.486005,21.4099978 157.446,21.85 C156.405995,22.2900022 155.296006,22.51 154.116,22.51 C152.515992,22.51 151.081006,22.2200029 149.811,21.64 C148.540994,21.0599971 147.471004,20.2650051 146.601,19.255 C145.730996,18.244995 145.066002,17.0550069 144.606,15.685 C144.145998,14.3149932 143.916,12.8500078 143.916,11.29 Z M162.816,1.72 L162.816,0.58 L179.226,0.58 L179.226,1.72 L171.666,1.72 L171.666,22 L170.346,22 L170.346,1.72 L162.816,1.72 Z M180.696,0.58 L182.016,0.58 L182.016,22 L180.696,22 L180.696,0.58 Z M205.206,11.29 C205.206,12.8500078 204.976002,14.3149932 204.516,15.685 C204.055998,17.0550069 203.391004,18.244995 202.521,19.255 C201.650996,20.2650051 200.586006,21.0599971 199.326,21.64 C198.065994,22.2200029 196.636008,22.51 195.036,22.51 C193.435992,22.51 192.001006,22.2200029 190.731,21.64 C189.460994,21.0599971 188.391004,20.2650051 187.521,19.255 C186.650996,18.244995 185.986002,17.0550069 185.526,15.685 C185.065998,14.3149932 184.836,12.8500078 184.836,11.29 C184.836,9.7299922 185.065998,8.26500685 185.526,6.895 C185.986002,5.52499315 186.650996,4.33500505 187.521,3.325 C188.391004,2.31499495 189.460994,1.5200029 190.731,0.94 C192.001006,0.3599971 193.435992,0.07 195.036,0.07 C196.636008,0.07 198.065994,0.3599971 199.326,0.94 C200.586006,1.5200029 201.650996,2.31499495 202.521,3.325 C203.391004,4.33500505 204.055998,5.52499315 204.516,6.895 C204.976002,8.26500685 205.206,9.7299922 205.206,11.29 Z M186.156,11.29 C186.156,12.6700069 186.355998,13.9699939 186.756,15.19 C187.156002,16.4100061 187.735996,17.4749954 188.496,18.385 C189.256004,19.2950046 190.185994,20.0199973 191.286,20.56 C192.386006,21.1000027 193.635993,21.37 195.036,21.37 C196.436007,21.37 197.680995,21.1000027 198.771,20.56 C199.861005,20.0199973 200.785996,19.2950046 201.546,18.385 C202.306004,17.4749954 202.885998,16.4100061 203.286,15.19 C203.686002,13.9699939 203.886,12.6700069 203.886,11.29 C203.886,9.9099931 203.686002,8.6100061 203.286,7.39 C202.885998,6.1699939 202.306004,5.10500455 201.546,4.195 C200.785996,3.28499545 199.861005,2.5600027 198.771,2.02 C197.680995,1.4799973 196.436007,1.21 195.036,1.21 C193.635993,1.21 192.386006,1.4799973 191.286,2.02 C190.185994,2.5600027 189.256004,3.28499545 188.496,4.195 C187.735996,5.10500455 187.156002,6.1699939 186.756,7.39 C186.355998,8.6100061 186.156,9.9099931 186.156,11.29 Z M208.026,0.58 L209.676,0.58 L223.206,20.23 L223.266,20.23 L223.266,0.58 L224.586,0.58 L224.586,22 L223.026,22 L209.406,2.2 L209.346,2.2 L209.346,22 L208.026,22 L208.026,0.58 Z" id="XCLOUD-ACTION" fill="#000000"></path>
    </g>
</svg>